<svg xmlns="http://www.w3.org/2000/svg" xmlns:xlink="http://www.w3.org/1999/xlink" width="120" height="107.606" viewBox="0 0 120 107.606">
  <defs>
    <clipPath id="clip-path">
      <rect id="Rectangle_1047" data-name="Rectangle 1047" width="120" height="107.606" fill="none"/>
    </clipPath>
  </defs>
  <g id="Group_561" data-name="Group 561" transform="translate(0 0)">
    <path id="Path_4922" data-name="Path 4922" d="M12.732,64.815v7.99H4.174v-7.99H0V85.687H4.174V76.92h8.557v8.767h4.173V64.815Z" transform="translate(0 8.531)"/>
    <rect id="Rectangle_1044" data-name="Rectangle 1044" width="4.175" height="20.872" transform="translate(24.668 73.347)"/>
    <g id="Group_560" data-name="Group 560" transform="translate(0 0)">
      <g id="Group_559" data-name="Group 559" clip-path="url(#clip-path)">
        <path id="Path_4923" data-name="Path 4923" d="M44.434,85.687l-3.728-7.513H36.5v7.513H32.329V64.816h9.72c3.936,0,7.186,2.176,7.186,6.619,0,3.131-1.342,5.1-4,6.142l4,8.109ZM41.959,68.871H36.5v5.367h5.457c1.937,0,2.982-.9,2.982-2.714,0-1.878-1.134-2.654-2.982-2.654" transform="translate(4.255 8.531)"/>
        <path id="Path_4924" data-name="Path 4924" d="M59.938,86.053a9.675,9.675,0,0,1-8.109-3.786l3.011-2.684a6.761,6.761,0,0,0,5.337,2.385c2.475,0,3.638-.686,3.638-2.266,0-1.342-.716-1.938-4.652-2.832-3.846-.9-6.529-2.117-6.529-6.232,0-3.786,3.339-6.112,7.454-6.112a9.976,9.976,0,0,1,7.6,3.279l-3.012,2.922a6.363,6.363,0,0,0-4.74-2.147c-2.236,0-2.982.954-2.982,1.878,0,1.312.9,1.729,4.205,2.5s6.976,1.908,6.976,6.44c0,3.966-2.5,6.649-8.2,6.649" transform="translate(6.822 8.493)"/>
        <path id="Path_4925" data-name="Path 4925" d="M83.8,70.936a3.964,3.964,0,0,0-3.817-2.266c-3.13,0-4.919,2.743-4.919,6.619,0,3.757,1.819,6.619,4.95,6.619,1.878,0,2.981-.8,4.084-2.654l3.519,2.088A7.975,7.975,0,0,1,79.9,86.053c-5.456,0-9.123-4.175-9.123-10.764,0-6.351,3.816-10.764,9.273-10.764a7.873,7.873,0,0,1,7.633,4.622Z" transform="translate(9.316 8.493)"/>
        <path id="Path_4926" data-name="Path 4926" d="M103.738,85.687V76.921H95.18v8.766H91.006V64.815H95.18v7.99h8.557v-7.99h4.175V85.687Z" transform="translate(11.979 8.531)"/>
        <rect id="Rectangle_1045" data-name="Rectangle 1045" width="1.028" height="6.849" transform="translate(0.32 100.65)"/>
        <path id="Path_4927" data-name="Path 4927" d="M10.277,95.792,7.547,91.5c-.166-.255-.4-.665-.509-.842,0,.255.01,1.2.01,1.585v3.551h-1V88.943H7.1l2.6,4.178c.177.283.47.792.567.969,0-.255-.009-1.233-.009-1.615V88.943h1v6.849Z" transform="translate(0.796 11.707)"/>
        <path id="Path_4928" data-name="Path 4928" d="M18.109,89.951v5.84H17.082v-5.84h-2V88.943h5.019v1.008Z" transform="translate(1.986 11.707)"/>
        <path id="Path_4929" data-name="Path 4929" d="M23.958,95.792V88.943H28.37v1H24.985v1.693h1.967v1H24.985v2.163h3.532v1Z" transform="translate(3.153 11.707)"/>
        <path id="Path_4930" data-name="Path 4930" d="M36.216,92.993l1.4,2.8H36.431l-1.36-2.71H33.525v2.71H32.518V88.943h3a1.976,1.976,0,0,1,2.2,2.045,1.9,1.9,0,0,1-1.506,2.005m-.695-3.081h-2v2.2h2a1.032,1.032,0,0,0,1.164-1.1,1.049,1.049,0,0,0-1.164-1.106" transform="translate(4.28 11.707)"/>
        <path id="Path_4931" data-name="Path 4931" d="M45.989,95.792,43.259,91.5c-.166-.255-.4-.665-.509-.842,0,.255.01,1.2.01,1.585v3.551h-1V88.943h1.047l2.6,4.178c.177.283.47.792.567.969,0-.255-.009-1.233-.009-1.615V88.943h1v6.849Z" transform="translate(5.497 11.707)"/>
        <path id="Path_4932" data-name="Path 4932" d="M55.748,95.792l-.577-1.624h-2.74l-.567,1.624H50.8l2.466-6.849h1.086l2.5,6.849ZM54.31,91.672c-.166-.489-.44-1.281-.518-1.575-.078.294-.323,1.076-.5,1.585l-.548,1.565h2.113Z" transform="translate(6.686 11.707)"/>
        <path id="Path_4933" data-name="Path 4933" d="M62.441,89.951v5.84H61.413v-5.84h-2V88.943h5.019v1.008Z" transform="translate(7.821 11.707)"/>
        <rect id="Rectangle_1046" data-name="Rectangle 1046" width="1.028" height="6.849" transform="translate(77.327 100.65)"/>
        <path id="Path_4934" data-name="Path 4934" d="M76.884,95.912c-1.771,0-2.9-1.458-2.9-3.532s1.125-3.532,2.9-3.532,2.906,1.458,2.906,3.532-1.126,3.532-2.906,3.532m0-6.036c-1.194,0-1.849.969-1.849,2.5s.655,2.505,1.849,2.505,1.859-.969,1.859-2.505-.656-2.5-1.859-2.5" transform="translate(9.739 11.694)"/>
        <path id="Path_4935" data-name="Path 4935" d="M87.7,95.792,84.971,91.5c-.166-.255-.4-.665-.509-.842,0,.255.01,1.2.01,1.585v3.551h-1V88.943h1.047l2.6,4.178c.177.283.47.792.567.969,0-.255-.009-1.233-.009-1.615V88.943h1v6.849Z" transform="translate(10.987 11.707)"/>
        <path id="Path_4936" data-name="Path 4936" d="M97.288,95.792l-.577-1.624h-2.74L93.4,95.792H92.337L94.8,88.943h1.086l2.5,6.849ZM95.85,91.672c-.166-.489-.44-1.281-.518-1.575-.078.294-.323,1.076-.5,1.585l-.548,1.565H96.4Z" transform="translate(12.154 11.707)"/>
        <path id="Path_4937" data-name="Path 4937" d="M102.117,95.792V88.943h1.028v5.84h3.414v1.008Z" transform="translate(13.441 11.707)"/>
        <path id="Path_4938" data-name="Path 4938" d="M50.24,37.83,55.83,34.6l-5.59-3.227L44.649,34.6,39.058,37.83l-5.59,3.227,5.59,3.229,5.591,3.227,5.59,3.227,5.59-3.227-5.59-3.227,5.59-3.229Z" transform="translate(4.405 4.129)" fill="#fab900"/>
        <path id="Path_4939" data-name="Path 4939" d="M48.289,48.863v6.456l5.59-3.229V45.636Z" transform="translate(6.356 6.007)" fill="#f4c200"/>
        <path id="Path_4940" data-name="Path 4940" d="M53.229,52.091l5.59,3.227V48.864l-5.59-3.229Z" transform="translate(7.006 6.006)" fill="#f4c200"/>
        <path id="Path_4941" data-name="Path 4941" d="M70,37.83,64.41,34.6l-5.59-3.227L53.229,34.6,58.82,37.83l-5.591,3.227,5.591,3.229-5.591,3.227L58.82,50.74l5.59-3.227L70,44.286l5.59-3.229Z" transform="translate(7.006 4.129)" fill="#fab900"/>
        <path id="Path_4942" data-name="Path 4942" d="M28.528,20.341l5.59,3.227,5.59-3.227-5.59-3.227Z" transform="translate(3.755 2.252)" fill="#eb5d0b"/>
        <path id="Path_4943" data-name="Path 4943" d="M44.649,29.648V23.194l-5.59,3.227V19.965l-5.59,3.229V42.559l5.59-3.227,5.59-3.229,5.59-3.227V26.421Z" transform="translate(4.405 2.628)" fill="#f06400"/>
        <path id="Path_4944" data-name="Path 4944" d="M69.35,19.965V26.42l-5.59-3.227v6.456L58.17,26.42v6.456L63.76,36.1l5.59,3.229,5.59,3.227V23.193Z" transform="translate(7.657 2.628)" fill="#f77d11"/>
        <path id="Path_4945" data-name="Path 4945" d="M68.05,20.341l5.59,3.227,5.591-3.227L73.64,17.113Z" transform="translate(8.957 2.252)" fill="#ee8900"/>
        <path id="Path_4946" data-name="Path 4946" d="M33.468,17.864l5.59,3.227V14.636l-5.59-3.227Z" transform="translate(4.405 1.501)" fill="#eb5d0b"/>
        <path id="Path_4947" data-name="Path 4947" d="M49.589,8.932,44,12.159l-5.591,3.227v6.456L44,18.615V25.07l5.59-3.227V28.3l5.59-3.227V5.7Z" transform="translate(5.055 0.751)" fill="#f06400"/>
        <path id="Path_4948" data-name="Path 4948" d="M64.41,12.16,58.82,8.932,53.229,5.7V25.07L58.82,28.3V21.843l5.59,3.227V18.614L70,21.843V15.387Z" transform="translate(7.006 0.751)" fill="#f77d11"/>
        <path id="Path_4949" data-name="Path 4949" d="M50.89,27.172,45.3,23.944l-5.591-3.229-5.59-3.227-5.59-3.227V46.538l5.59,3.227,5.59,3.227L45.3,56.221l5.59,3.229,5.59,3.227V30.4Zm0,12.911V52.993L45.3,49.766l-5.591-3.227-5.59-3.229V23.944l5.59,3.227L45.3,30.4l5.59,3.229Z" transform="translate(3.755 1.877)" fill="#f77d11"/>
        <path id="Path_4950" data-name="Path 4950" d="M78.842,12.911,73.251,9.682l-5.59-3.227-5.59-3.227L56.48,0,50.889,3.227,45.3,6.455l-5.59,3.227-5.59,3.229-5.591,3.227,5.591,3.227,5.59,3.227,5.59,3.229,5.59,3.227,5.591,3.227,5.59-3.227,5.59-3.227,5.59-3.229,5.591-3.227,5.59-3.227ZM67.661,19.366l-5.59,3.227-5.59,3.229-5.591-3.229L45.3,19.366l-5.59-3.227,5.59-3.227,5.59-3.229L56.48,6.455l5.59,3.227,5.59,3.229,5.59,3.227Z" transform="translate(3.755 0)" fill="#fab900"/>
        <path id="Path_4951" data-name="Path 4951" d="M75.591,17.488,70,20.716l-5.591,3.229-5.59,3.227L53.229,30.4V62.675l5.59-3.227,5.59-3.227L70,52.993l5.59-3.227,5.59-3.229V14.261Zm0,12.911V43.31L70,46.537l-5.591,3.229-5.59,3.227V33.627l5.59-3.227L70,27.172l5.59-3.227Z" transform="translate(7.006 1.877)" fill="#f06400"/>
      </g>
    </g>
  </g>
</svg>
