<?xml version="1.0" encoding="utf-8"?>
<!-- Generator: Adobe Illustrator 24.0.1, SVG Export Plug-In . SVG Version: 6.00 Build 0)  -->
<svg version="1.1" id="Layer_1" xmlns="http://www.w3.org/2000/svg" xmlns:xlink="http://www.w3.org/1999/xlink" x="0px" y="0px"
	 viewBox="0 0 205.1 224.3" style="enable-background:new 0 0 205.1 224.3;" xml:space="preserve">
<style type="text/css">
	.st0{enable-background:new    ;}
	.st1{fill:#FAB010;}
	.st2{fill:#F74F10;}
	.st3{fill:#F77D11;}
	.st4{fill:#FFFFFF;}
</style>
<g>
	<g>
		<g class="st0">
			<g>
				<polygon class="st1" points="121.4,41.2 115.2,44.8 109,41.2 115.2,37.6 				"/>
			</g>
			<g>
				<polygon class="st2" points="121.4,41.2 121.3,67.9 115.2,71.5 115.2,44.8 				"/>
			</g>
			<g>
				<polygon class="st3" points="115.2,44.8 115.2,71.5 108.9,67.9 109,41.2 				"/>
			</g>
		</g>
	</g>
	<polygon class="st3" points="113,61.1 130.3,70.7 128.8,95.1 118.8,97.5 107.3,84.6 	"/>
	<polygon class="st2" points="74.7,94.6 77.6,63 101,63.5 102.6,88.4 76.6,96.1 	"/>
	<g>
		<polygon class="st1" points="126.6,93.7 108.6,83.2 96.6,83.2 78.5,93.7 78.3,96.8 101.3,109.3 118.5,102.5 126.7,96.3 		"/>
		<g>
			<path class="st2" d="M102.6,79.8l15-17.9l15.1,0.5v6.9v6.9v6.9v6.9v6.9l-6,3.5l-6,3.5l-6,3.5l-6,3.5l-6,3.5v-6.9v-6.9v-6.9v-6.9
				L102.6,79.8 M108.6,90.2v6.9v6.9l6-3.5l6-3.5l6-3.5v-6.9v-6.9v-7.2l-8.5-4.9l-9.6,15.6V90.2z"/>
			<path class="st3" d="M78.5,65.9l6,3.5l6,3.5l6,3.5l6,3.5v6.9v6.9v6.9v6.9v6.9l-6-3.5l-6-3.5l-6-3.5l-6-3.5l-6-3.5v-6.9v-6.9v-6.9
				v-6.9v-6.9L78.5,65.9z M78.5,79.8v6.9v6.9l6,3.5l6,3.5l6,3.5v-6.9v-6.9v-6.9l-6-3.5l-6-3.5l-6-3.5V79.8z"/>
		</g>
		<polyline class="st2" points="102.7,79.6 105.1,82 118.8,62.1 130,68.5 132.7,62.4 118.4,54.3 102.6,79.8 		"/>
		<polygon class="st1" points="118.4,54.3 88.6,37.3 72.5,62.4 102.6,79.8 		"/>
	</g>
</g>
<g>
	<g>
		<path class="st4" d="M20.9,150.7l0.2-0.4c0-0.2,0-0.4-0.1-0.7c-0.1-0.3-0.2-0.6-0.3-0.8c-0.2-0.3-0.3-0.5-0.5-0.7
			s-0.4-0.4-0.6-0.5c-0.2-0.1-0.4-0.2-0.7-0.2c-0.2,0-0.5,0.1-0.7,0.2c-0.3,0.2-0.5,0.4-0.6,0.7c-0.1,0.3-0.1,0.7-0.1,1.1
			c0,0.4,0,0.8,0.1,1.3c0.1,0.4,0.1,0.9,0,1.3c0,0.4-0.1,0.8-0.3,1.2c-0.2,0.4-0.5,0.7-0.9,0.9c-0.6,0.4-1.3,0.4-1.9,0.1
			c-0.6-0.3-1.2-0.8-1.6-1.7c-0.3-0.5-0.5-1-0.7-1.4c-0.1-0.4-0.2-0.8-0.3-1.1l2-1.1l0.4,0.7l-1.2,0.7l-0.2,0.3
			c0,0.2,0.1,0.4,0.2,0.7c0.1,0.3,0.3,0.6,0.4,0.8c0.3,0.5,0.6,0.8,0.9,0.9c0.4,0.1,0.7,0.1,1.1-0.1c0.3-0.2,0.5-0.4,0.6-0.7
			s0.1-0.7,0.1-1.1s0-0.8-0.1-1.3c0-0.5-0.1-0.9,0-1.3c0-0.4,0.1-0.8,0.3-1.2c0.2-0.4,0.5-0.7,0.9-0.9c0.7-0.4,1.5-0.4,2.2-0.1
			c0.7,0.4,1.3,1,1.9,2c0.3,0.5,0.5,1,0.6,1.5c0.1,0.5,0.1,0.8,0.1,1.1l-2.1,1.2l-0.4-0.7L20.9,150.7z"/>
		<path class="st4" d="M13.5,143.9c-0.6,0.3-1.2,0.4-1.9,0.4s-1.2-0.1-1.7-0.3c-0.5-0.2-1-0.5-1.5-1c-0.4-0.4-0.8-1-1.1-1.7
			c-0.3-0.7-0.4-1.3-0.4-2c0-0.6,0.1-1.2,0.4-1.7c0.2-0.5,0.6-1,1-1.4c0.5-0.4,1-0.7,1.6-1c0.6-0.3,1.2-0.4,1.9-0.4
			c0.6,0,1.2,0.1,1.7,0.3c0.5,0.2,1,0.5,1.5,1c0.4,0.5,0.8,1,1.1,1.7c0.3,0.7,0.4,1.3,0.4,2c0,0.6-0.1,1.2-0.4,1.7
			c-0.2,0.5-0.6,1-1,1.4C14.7,143.3,14.2,143.6,13.5,143.9z M12.9,142.4c0.5-0.2,1-0.5,1.4-0.8c0.4-0.3,0.7-0.6,0.9-1
			c0.2-0.4,0.4-0.8,0.4-1.2c0-0.4,0-0.9-0.2-1.4c-0.2-0.5-0.4-0.8-0.8-1.1c-0.3-0.3-0.7-0.4-1.1-0.5c-0.4-0.1-0.9-0.1-1.4,0
			c-0.5,0.1-1,0.2-1.5,0.4c-0.5,0.2-1,0.5-1.4,0.8c-0.4,0.3-0.7,0.6-0.9,1c-0.2,0.4-0.4,0.8-0.4,1.2c0,0.4,0,0.9,0.2,1.4
			c0.2,0.5,0.5,0.9,0.8,1.1c0.3,0.3,0.7,0.4,1.1,0.5c0.4,0.1,0.9,0.1,1.4,0C11.9,142.8,12.4,142.6,12.9,142.4z"/>
		<path class="st4" d="M9.2,124.3L9,123.5l2-0.5c0.2,0.2,0.4,0.5,0.6,0.9c0.2,0.4,0.4,0.8,0.5,1.2c0.2,0.8,0.3,1.5,0.3,2.1
			s-0.2,1.2-0.4,1.8s-0.6,1-1.2,1.3c-0.5,0.4-1.2,0.7-2,0.9c-0.8,0.2-1.6,0.3-2.2,0.2s-1.2-0.3-1.7-0.6c-0.5-0.3-0.9-0.8-1.2-1.3
			s-0.6-1.1-0.7-1.7c-0.1-0.3-0.1-0.6-0.2-0.8c0-0.2-0.1-0.5-0.1-0.7c0-0.2,0-0.4,0-0.6c0-0.2,0-0.4,0.1-0.5l2.1-0.6l0.2,0.8
			l-1.3,0.3l-0.2,0.2c0,0.1,0,0.3,0,0.5c0,0.2,0,0.5,0.2,1c0.1,0.5,0.3,0.9,0.5,1.2c0.2,0.4,0.6,0.6,0.9,0.8s0.8,0.3,1.3,0.4
			c0.5,0,1.1,0,1.8-0.2c1.2-0.3,2-0.9,2.5-1.6c0.5-0.8,0.6-1.7,0.3-2.8c-0.1-0.3-0.2-0.5-0.3-0.7c-0.1-0.2-0.2-0.3-0.3-0.4l-0.3-0.1
			L9.2,124.3z"/>
		<path class="st4" d="M10,115.6l0.6,3.8l-0.7,0.1l-0.2-1.2l-7.5,1.2l0.2,1.2l-0.7,0.1L1,117l0.7-0.1l0.2,1.2l7.5-1.2l-0.2-1.2
			L10,115.6z"/>
		<path class="st4" d="M9.4,109.6l0.2,3.2l-0.7,0l-0.1-1l-8.5-2.9l-0.1-1.4l8.2-3.5l-0.1-1l0.7,0l0.2,3.7l-0.7,0l-0.1-1.2l-2.2,1
			l0.2,3.5l2.3,0.8l-0.1-1.1L9.4,109.6z M5.6,109.7l-0.2-2.9L2.5,108l-1.4,0.4l0,0.1l1.4,0.3L5.6,109.7z"/>
		<path class="st4" d="M0.7,100l-0.7,0l0.2-4l0.7,0l-0.1,1.4l7.6,0.5l0.2-3.5l-0.3-0.3l-1.8-0.1L6.7,93l2.8,0.2l-0.4,7.3l-0.7,0
			l0.1-1.2l-7.6-0.5L0.7,100z"/>
		<path class="st4" d="M2.6,82.8l-0.7-0.2l0.3-1.3c0.1-0.4,0.2-0.8,0.2-1.2c0.1-0.5,0.2-0.9,0.3-1.3c0.1-0.5,0.3-0.9,0.5-1.3
			c0.2-0.4,0.4-0.8,0.7-1.1s0.6-0.5,1-0.6c0.4-0.1,0.9-0.1,1.4,0c0.5,0.1,0.9,0.3,1.2,0.6c0.3,0.3,0.5,0.7,0.7,1.1
			c0.1,0.4,0.2,0.9,0.2,1.4c0,0.5-0.1,1-0.2,1.5c0,0.1,0,0.1-0.1,0.2c0,0.1-0.1,0.2-0.1,0.3C8.1,80.9,8,81,8,81.1
			c0,0.1-0.1,0.2-0.1,0.2l2.7,0.7l0.3-1.3l0.7,0.2l-0.9,3.8L10,84.6l0.3-1.2l-7.4-1.8L2.6,82.8z M7.2,81.2c0,0,0.1-0.1,0.1-0.2
			c0-0.1,0.1-0.2,0.1-0.3s0.1-0.2,0.1-0.3c0-0.1,0-0.2,0.1-0.2c0.1-0.3,0.1-0.6,0.1-1c0-0.3-0.1-0.6-0.2-0.9
			c-0.1-0.3-0.3-0.5-0.5-0.7c-0.2-0.2-0.5-0.3-0.9-0.4c-0.7-0.2-1.3-0.1-1.7,0.3c-0.4,0.4-0.7,0.9-0.9,1.7c-0.1,0.2-0.1,0.4-0.1,0.6
			s0,0.3,0,0.4L7.2,81.2z"/>
		<path class="st4" d="M13.6,71.6l0.4-1.1l0.7,0.3l-1.3,3.5L12.7,74l0.4-1.1L6,70.3l-0.4,1.1l-0.7-0.3l0.5-1.2
			c0.1-0.4,0.3-0.8,0.4-1.2s0.3-0.9,0.4-1.3c0.2-0.4,0.4-0.9,0.6-1.2c0.2-0.4,0.5-0.6,0.8-0.9c0.3-0.2,0.6-0.3,1-0.4
			c0.4-0.1,0.8,0,1.2,0.2c0.6,0.2,1,0.6,1.3,1.1c0.3,0.5,0.4,1.1,0.4,1.7l4.1-1.3l0.3-0.8l0.7,0.3l-0.7,2l-4.6,1.1l-0.5,1.2
			L13.6,71.6z M10.4,69.3c0.2-0.6,0.2-1.2,0-1.7c-0.2-0.5-0.6-0.8-1.2-1c-0.6-0.2-1.1-0.2-1.5,0.1c-0.4,0.3-0.7,0.7-1,1.3
			c-0.1,0.2-0.1,0.4-0.2,0.5c0,0.1-0.1,0.3-0.1,0.4l3.6,1.3L10.4,69.3z"/>
		<path class="st4" d="M13.3,61.8c-0.6-0.3-1.1-0.7-1.5-1.1s-0.7-0.9-0.9-1.5c-0.2-0.5-0.3-1.1-0.2-1.7c0.1-0.6,0.3-1.3,0.6-1.9
			c0.3-0.7,0.7-1.2,1.2-1.6s1-0.7,1.5-0.9c0.6-0.2,1.1-0.2,1.7-0.1s1.2,0.3,1.8,0.6s1.1,0.7,1.5,1.1c0.4,0.4,0.7,0.9,0.9,1.5
			c0.2,0.5,0.3,1.1,0.2,1.8c-0.1,0.6-0.3,1.3-0.6,1.9c-0.3,0.7-0.7,1.2-1.2,1.6c-0.5,0.4-1,0.7-1.5,0.8s-1.1,0.2-1.7,0.1
			S13.9,62.1,13.3,61.8z M14.1,60.4c0.5,0.3,1,0.4,1.5,0.5c0.5,0.1,1,0.1,1.4,0.1c0.4-0.1,0.8-0.2,1.2-0.5c0.4-0.3,0.7-0.6,0.9-1.1
			c0.2-0.4,0.3-0.9,0.3-1.3c0-0.4-0.1-0.8-0.3-1.2s-0.5-0.7-0.9-1.1c-0.4-0.3-0.8-0.6-1.3-0.9c-0.5-0.3-1-0.4-1.5-0.5
			c-0.5-0.1-1-0.1-1.4-0.1c-0.4,0.1-0.8,0.2-1.2,0.5c-0.4,0.3-0.7,0.6-0.9,1.1c-0.2,0.5-0.4,0.9-0.3,1.3c0,0.4,0.1,0.8,0.3,1.2
			s0.5,0.7,0.9,1C13.2,59.8,13.6,60.1,14.1,60.4z"/>
		<path class="st4" d="M24.7,53.6c0-0.2,0-0.3,0-0.5c0-0.2-0.1-0.3-0.1-0.5c-0.1-0.2-0.2-0.4-0.4-0.6c-0.2-0.2-0.5-0.4-0.9-0.7
			l-6.1-4.1l-0.6,0.9l-0.6-0.4l2.1-3.1l0.6,0.4l-0.7,1l6,4c0.5,0.3,0.9,0.7,1.1,1c0.2,0.4,0.4,0.7,0.5,1c0.1,0.3,0.1,0.6,0,0.9
			c-0.1,0.3-0.1,0.5-0.2,0.7L24.7,53.6z"/>
		<path class="st4" d="M24.7,35.9l1.7,1.3l-0.5,0.6l-0.9-0.7l-0.4,0l-2,2.5l2.6,2.1l1.4-1.7l0-0.3l-0.4-0.3l0.5-0.6l1.7,1.4
			l-0.5,0.6l-0.4-0.3l-0.3,0l-1.4,1.7l2.8,2.2l2.1-2.7l0-0.4l-1-0.8l0.5-0.6l1.8,1.4L27.4,47l-0.6-0.5l0.7-0.9l-6-4.8l-0.7,0.9
			l-0.6-0.5L24.7,35.9z"/>
		<path class="st4" d="M37.4,32.3l0.6-0.6l1.4,1.5c-0.1,0.3-0.3,0.6-0.5,1c-0.2,0.4-0.5,0.7-0.8,1c-0.6,0.6-1.1,1-1.7,1.3
			c-0.6,0.3-1.2,0.5-1.7,0.5c-0.6,0-1.2-0.1-1.7-0.3c-0.6-0.3-1.2-0.7-1.7-1.3c-0.6-0.6-1-1.2-1.2-1.8c-0.2-0.6-0.3-1.2-0.3-1.8
			c0.1-0.6,0.2-1.1,0.5-1.7s0.7-1,1.1-1.5c0.2-0.2,0.4-0.4,0.6-0.6s0.4-0.3,0.6-0.4s0.3-0.2,0.5-0.3c0.2-0.1,0.3-0.2,0.5-0.2
			l1.6,1.6l-0.6,0.6l-1-1l-0.3-0.1c-0.1,0-0.2,0.1-0.4,0.2c-0.2,0.1-0.4,0.3-0.8,0.6c-0.3,0.3-0.6,0.7-0.8,1.1
			c-0.2,0.4-0.3,0.8-0.3,1.2c0,0.4,0.1,0.9,0.3,1.4s0.6,1,1,1.4c0.9,0.9,1.8,1.3,2.7,1.4s1.8-0.3,2.6-1.1c0.2-0.2,0.4-0.4,0.5-0.6
			s0.2-0.3,0.2-0.5l0-0.3L37.4,32.3z"/>
		<path class="st4" d="M46.8,27.6l-3.3,2.5l-0.4-0.6l1.1-0.8l-4.7-6l-1.8,1.4l0,0.4l1,1.3l-0.7,0.6l-1.7-2.1l6.7-5.2l1.7,2.1
			l-0.7,0.6l-1-1.3l-0.4-0.1l-1.8,1.4l4.7,6l1.1-0.8L46.8,27.6z"/>
		<path class="st4" d="M51.3,23l0.4,0.1c0.2,0,0.4,0,0.7-0.1s0.5-0.2,0.8-0.4c0.3-0.2,0.5-0.3,0.7-0.5s0.3-0.4,0.4-0.6
			s0.1-0.4,0.1-0.7c0-0.2-0.1-0.5-0.2-0.7c-0.2-0.3-0.4-0.5-0.8-0.6c-0.3-0.1-0.7-0.1-1.1-0.1c-0.4,0-0.8,0.1-1.3,0.1
			c-0.4,0.1-0.9,0.1-1.3,0.1s-0.8-0.1-1.2-0.3c-0.4-0.2-0.7-0.4-1-0.9c-0.4-0.6-0.4-1.3-0.2-1.9c0.3-0.6,0.8-1.2,1.6-1.7
			c0.5-0.3,1-0.5,1.4-0.7c0.4-0.2,0.8-0.3,1.1-0.3l1.2,1.9L52,16.3l-0.7-1.2l-0.3-0.2c-0.2,0-0.4,0.1-0.7,0.2s-0.6,0.3-0.8,0.4
			c-0.4,0.3-0.7,0.6-0.9,0.9s-0.1,0.7,0.1,1.1c0.2,0.3,0.4,0.5,0.8,0.6c0.3,0.1,0.7,0.1,1.1,0.1c0.4,0,0.8-0.1,1.3-0.1
			c0.4-0.1,0.9-0.1,1.3-0.1c0.4,0,0.8,0.1,1.2,0.2c0.4,0.1,0.7,0.4,0.9,0.8c0.4,0.7,0.5,1.4,0.2,2.2c-0.3,0.7-1,1.4-1.9,2
			c-0.5,0.3-1,0.5-1.5,0.7c-0.5,0.1-0.8,0.2-1.1,0.2l-1.2-2l0.7-0.4L51.3,23z"/>
		<path class="st4" d="M64.5,17.2l-0.3-0.7l1.1-0.4l-2.8-7.1l-1.1,0.4l-0.3-0.7l1.6-0.6C63,8,63.1,7.9,63.3,7.9
			c0.2-0.1,0.3-0.1,0.5-0.2s0.3-0.2,0.5-0.2s0.4-0.2,0.7-0.3c0.4-0.1,0.7-0.3,1.1-0.3s0.8-0.1,1.1-0.1c0.4,0,0.7,0.1,1,0.3
			c0.3,0.2,0.5,0.5,0.7,0.9C68.9,8.2,69,8.4,69,8.6c0,0.2,0,0.5-0.1,0.7c-0.1,0.2-0.2,0.5-0.4,0.7c-0.2,0.2-0.4,0.4-0.7,0.6l0,0
			c0.3-0.1,0.6-0.1,0.9-0.1c0.3,0,0.6,0,0.9,0.1c0.3,0.1,0.5,0.2,0.8,0.4c0.2,0.2,0.4,0.5,0.5,0.8c0.2,0.4,0.2,0.8,0.1,1.2
			c-0.1,0.4-0.3,0.8-0.5,1.1c-0.3,0.3-0.6,0.6-1,0.9c-0.4,0.3-0.8,0.5-1.3,0.7c-0.3,0.1-0.7,0.3-1.1,0.4c-0.4,0.1-0.8,0.3-1.1,0.4
			L64.5,17.2z M65.8,11.3c0.2-0.1,0.3-0.1,0.5-0.2c0.2-0.1,0.4-0.2,0.5-0.2c0.4-0.3,0.6-0.6,0.7-1c0.1-0.4,0.1-0.8,0-1.2
			c-0.2-0.5-0.5-0.9-1-1c-0.4-0.1-0.9-0.1-1.5,0.2c-0.3,0.1-0.5,0.2-0.7,0.3c-0.2,0.1-0.3,0.2-0.5,0.2l1.3,3.2L65.8,11.3z M68,15.1
			c0.3-0.1,0.6-0.3,0.8-0.5c0.2-0.2,0.4-0.4,0.6-0.6c0.1-0.2,0.2-0.5,0.2-0.7c0-0.3,0-0.5-0.1-0.8c-0.1-0.3-0.3-0.6-0.5-0.7
			c-0.2-0.2-0.5-0.3-0.7-0.3c-0.3,0-0.6,0-0.9,0c-0.3,0.1-0.6,0.2-1,0.3l-1,0.4l1.3,3.3c0.1,0,0.3,0,0.5-0.1
			C67.4,15.3,67.6,15.2,68,15.1z"/>
		<path class="st4" d="M78.2,3l3.1-0.8l0.2,0.7l-1.1,0.3l-1.5,5.1l0.8,3l1.1-0.3l0.2,0.7l-3.7,1l-0.2-0.7l1.1-0.3l-0.8-3l-4-3.6
			l-1.1,0.3l-0.2-0.7l3.8-1l0.2,0.7l-1.1,0.3l3.3,3.1l1.2-4.2l-1.2,0.3L78.2,3z"/>
		<path class="st4" d="M95.5,8.7l0,0.7l-3.7,0.2l0-0.7L93,8.9l-0.5-7.6l-1.2,0.1l0-0.7L95,0.4l0,0.7L94,1.2l0.2,3.3l4.5-0.3
			l-0.2-3.3L97.4,1l0-0.7l3.7-0.2l0,0.7l-1.2,0.1l0.5,7.6l1.2-0.1l0,0.7l-3.7,0.2l0-0.7L99,8.5l-0.2-3.6l-4.5,0.3l0.2,3.6L95.5,8.7z
			"/>
		<path class="st4" d="M108.7,9.4l-3.8-0.2l0-0.7l1.2,0.1l0.3-7.6l-1.2-0.1l0-0.7l3.8,0.2l0,0.7L107.9,1l-0.3,7.6l1.2,0.1L108.7,9.4
			z"/>
		<path class="st4" d="M114.6,9.2l1.1,0.2l-0.1,0.7l-3.7-0.5l0.1-0.7l1.2,0.2l1.1-7.6l-1.2-0.2l0.1-0.7l1.3,0.2
			c0.4,0.1,0.8,0.1,1.3,0.1c0.5,0,0.9,0.1,1.3,0.1c0.5,0.1,0.9,0.2,1.3,0.3c0.4,0.2,0.7,0.4,1,0.6s0.5,0.5,0.6,0.9
			c0.1,0.3,0.2,0.7,0.1,1.2c-0.1,0.6-0.4,1.1-0.8,1.5c-0.4,0.4-1,0.6-1.6,0.7l2.1,3.7l0.8,0.1l-0.1,0.7l-2.1-0.3l-2-4.3l-1.3-0.2
			L114.6,9.2z M116.2,5.6c0.7,0.1,1.2,0,1.6-0.3c0.4-0.3,0.7-0.8,0.8-1.4c0.1-0.6,0-1.1-0.4-1.5c-0.4-0.4-0.9-0.6-1.5-0.7
			c-0.2,0-0.4-0.1-0.6-0.1s-0.3,0-0.4,0l-0.5,3.8L116.2,5.6z"/>
		<path class="st4" d="M124.6,10.5l0.1,0.4c0.1,0.1,0.3,0.3,0.6,0.4c0.2,0.1,0.5,0.3,0.8,0.3c0.3,0.1,0.6,0.1,0.9,0.1
			c0.3,0,0.5,0,0.7-0.1c0.2-0.1,0.4-0.2,0.6-0.4c0.2-0.2,0.3-0.4,0.3-0.6c0.1-0.3,0-0.7-0.1-0.9s-0.4-0.6-0.7-0.8
			c-0.3-0.3-0.6-0.5-1-0.8s-0.7-0.6-1-0.9s-0.5-0.7-0.6-1c-0.1-0.4-0.2-0.8,0-1.3c0.2-0.7,0.6-1.2,1.2-1.5c0.6-0.3,1.4-0.3,2.4,0
			c0.6,0.2,1.1,0.3,1.5,0.5s0.7,0.4,1,0.6l-0.6,2.2l-0.8-0.2l0.4-1.4l-0.1-0.4c-0.1-0.1-0.4-0.2-0.7-0.3c-0.3-0.1-0.6-0.2-0.9-0.3
			c-0.5-0.1-0.9-0.1-1.3,0c-0.3,0.2-0.6,0.4-0.7,0.9c-0.1,0.3-0.1,0.7,0.1,1s0.4,0.6,0.7,0.8c0.3,0.3,0.6,0.6,1,0.8
			c0.4,0.3,0.7,0.6,1,0.9s0.5,0.7,0.7,1c0.1,0.4,0.2,0.8,0,1.2c-0.2,0.8-0.7,1.4-1.4,1.6c-0.7,0.3-1.7,0.3-2.7,0
			c-0.6-0.2-1.1-0.4-1.5-0.6c-0.4-0.2-0.7-0.5-0.8-0.7l0.6-2.3L125,9L124.6,10.5z"/>
		<path class="st4" d="M139.9,14.3l0.8,0.3l-0.7,1.9c-0.3,0-0.7,0-1.1,0c-0.4-0.1-0.9-0.2-1.3-0.3c-0.7-0.3-1.4-0.6-1.9-1
			c-0.5-0.4-0.9-0.9-1.2-1.4c-0.3-0.5-0.4-1.1-0.4-1.7c0-0.6,0.1-1.3,0.4-2.1c0.3-0.8,0.7-1.4,1.1-1.9c0.5-0.5,1-0.8,1.5-1
			c0.5-0.2,1.1-0.3,1.7-0.2c0.6,0,1.2,0.2,1.8,0.4c0.3,0.1,0.5,0.2,0.8,0.3s0.4,0.2,0.6,0.3c0.2,0.1,0.3,0.2,0.5,0.4
			c0.1,0.1,0.3,0.2,0.4,0.4l-0.8,2.1l-0.8-0.3l0.5-1.3l-0.1-0.3c-0.1-0.1-0.2-0.2-0.4-0.3s-0.5-0.3-0.9-0.4
			c-0.4-0.2-0.9-0.3-1.3-0.3c-0.4,0-0.8,0.1-1.2,0.3c-0.4,0.2-0.8,0.5-1.1,0.9c-0.3,0.4-0.6,0.9-0.9,1.5c-0.4,1.2-0.5,2.2-0.2,3
			c0.3,0.9,1,1.5,2.1,1.9c0.3,0.1,0.5,0.2,0.8,0.2c0.2,0,0.4,0,0.5,0l0.3-0.2L139.9,14.3z"/>
		<path class="st4" d="M146.5,19.3l-0.3,0.6l-3.3-1.8l0.3-0.6l1,0.6l3.7-6.7l-1-0.6l0.3-0.6l3.3,1.8l-0.3,0.6l-0.9-0.5l-1.6,2.9
			l4,2.2l1.6-2.9l-0.9-0.5l0.3-0.6l3.3,1.8l-0.3,0.6l-1-0.6l-3.7,6.7l1,0.6l-0.3,0.6l-3.3-1.8l0.3-0.6l0.9,0.5l1.7-3.1l-4-2.2
			l-1.7,3.1L146.5,19.3z"/>
		<path class="st4" d="M161.9,30.4l-3-2.4l0.5-0.6l0.9,0.7l4.7-6l-0.9-0.7l0.5-0.6l3,2.4l-0.5,0.6l-0.9-0.7l-4.7,6l0.9,0.7
			L161.9,30.4z"/>
		<path class="st4" d="M175.5,30.6l2.3,2.2l-0.5,0.5l-0.8-0.8l-6,6.1l-0.6-0.6l1.2-8.8l0.3-1.1l0,0l-0.6,0.8l-4.4,4.5l0.8,0.8
			l-0.5,0.5l-2.3-2.2l0.5-0.5l0.8,0.8l5.3-5.5l-0.8-0.8l0.5-0.5l1.9,1.8l-1,7.6l-0.3,1.3l0,0l0.7-0.9l3.8-3.9l-0.8-0.8L175.5,30.6z"
			/>
		<path class="st4" d="M177.2,46.4l-2.6-3.2l0.6-0.5l0.8,1.1l6-4.7l-1.4-1.8l-0.4,0l-1.3,1l-0.6-0.7l2.1-1.7l5.3,6.7l-2.1,1.7
			l-0.6-0.7l1.3-1l0.1-0.4l-1.4-1.8l-6,4.7l0.8,1.1L177.2,46.4z"/>
		<path class="st4" d="M191.5,51.5l-1.8,1.1l-0.4-0.7l1-0.6l0.1-0.4l-1.7-2.7l-2.9,1.8l1.2,1.9l0.3,0.1l0.5-0.3l0.4,0.7l-1.9,1.2
			l-0.4-0.7l0.5-0.3l0.1-0.3l-1.2-1.9l-3,1.9l1.8,2.9l0.4,0.1l1.1-0.7l0.4,0.7l-1.9,1.2l-3.7-6.1l0.6-0.4l0.6,1l6.5-4l-0.6-1
			l0.6-0.4L191.5,51.5z"/>
		<path class="st4" d="M187.3,61.5l0.5,1l-0.7,0.3l-1.6-3.4l0.7-0.3l0.5,1.1l6.9-3.2l-0.5-1.1l0.7-0.3l0.6,1.2
			c0.2,0.4,0.4,0.7,0.6,1.1c0.2,0.4,0.4,0.8,0.6,1.2c0.2,0.4,0.3,0.9,0.4,1.3c0.1,0.4,0.1,0.8,0,1.2s-0.2,0.7-0.4,1
			s-0.5,0.5-0.9,0.7c-0.6,0.3-1.1,0.3-1.7,0.1c-0.6-0.2-1.1-0.5-1.5-1l-2,3.8l0.3,0.7l-0.7,0.3l-0.9-1.9l2.5-4l-0.6-1.2L187.3,61.5z
			 M191.2,60.8c0.3,0.6,0.7,1,1.2,1.2s1,0.1,1.6-0.1c0.6-0.3,0.9-0.7,1-1.1c0.1-0.5,0-1-0.3-1.6c-0.1-0.2-0.2-0.4-0.3-0.5
			c-0.1-0.1-0.2-0.2-0.2-0.3l-3.5,1.6L191.2,60.8z"/>
		<path class="st4" d="M200.8,73.3l1,3l-0.7,0.2l-0.4-1.1l-8.1,2.6l-0.3-0.8l5.2-7.2l0.8-0.8l0,0l-0.9,0.4l-5.9,1.9l0.4,1.1
			l-0.7,0.2l-1-3l0.7-0.2l0.4,1.1l7.3-2.3l-0.4-1.1l0.7-0.2l0.8,2.5l-4.5,6.2l-0.9,1l0,0.1l1-0.4l5.1-1.6l-0.4-1.1L200.8,73.3z"/>
		<path class="st4" d="M194.3,84.6l-0.6-3.1l0.7-0.1l0.2,1l8.8,1.9l0.2,1.4l-7.7,4.5l0.2,1l-0.7,0.1l-0.6-3.7l0.7-0.1l0.2,1.1
			l2.1-1.2l-0.6-3.4l-2.4-0.5l0.2,1.1L194.3,84.6z M198,84l0.5,2.9l2.8-1.6l1.3-0.6l0-0.1l-1.4-0.1L198,84z"/>
		<path class="st4" d="M195.9,98.7l-0.3-4.1l0.7,0l0.1,1.3l7.6-0.5l-0.1-2.3l-0.3-0.2l-1.7,0.1l-0.1-0.9l2.7-0.2l0.5,8.5l-2.7,0.2
			l-0.1-0.9l1.7-0.1l0.3-0.3l-0.1-2.3l-7.6,0.5l0.1,1.3L195.9,98.7z"/>
		<path class="st4" d="M195.9,107.8l0.1-3.8l0.7,0l0,1.2l7.6,0.3l0-1.2l0.7,0l-0.1,3.8l-0.7,0l0-1.2l-7.6-0.3l0,1.2L195.9,107.8z"/>
		<path class="st4" d="M200.2,112c0.7,0.1,1.3,0.3,1.8,0.6c0.5,0.3,1,0.7,1.4,1.1c0.4,0.4,0.6,1,0.8,1.6s0.2,1.3,0.1,2
			c-0.1,0.7-0.3,1.4-0.6,1.9c-0.3,0.5-0.7,1-1.2,1.3s-1,0.6-1.6,0.7c-0.6,0.1-1.2,0.1-1.9,0c-0.7-0.1-1.3-0.3-1.8-0.6
			c-0.5-0.3-1-0.7-1.4-1.1c-0.4-0.5-0.6-1-0.8-1.6c-0.2-0.6-0.2-1.3-0.1-2c0.1-0.7,0.3-1.4,0.6-1.9c0.3-0.5,0.7-1,1.2-1.3
			c0.5-0.3,1-0.6,1.6-0.7C198.9,111.9,199.5,111.9,200.2,112z M200,113.6c-0.5-0.1-1.1-0.1-1.6,0c-0.5,0.1-0.9,0.2-1.3,0.4
			s-0.7,0.5-1,0.9c-0.3,0.4-0.4,0.8-0.5,1.3c-0.1,0.5,0,0.9,0.1,1.3c0.2,0.4,0.4,0.7,0.7,1s0.7,0.5,1.2,0.7c0.5,0.2,1,0.3,1.5,0.4
			c0.5,0.1,1.1,0.1,1.6,0c0.5-0.1,0.9-0.2,1.3-0.4c0.4-0.2,0.7-0.5,1-0.9c0.3-0.4,0.4-0.8,0.5-1.4c0.1-0.5,0-1-0.1-1.4
			c-0.2-0.4-0.4-0.7-0.7-1c-0.3-0.3-0.7-0.5-1.2-0.7C201,113.8,200.5,113.6,200,113.6z"/>
		<path class="st4" d="M200.6,132.6l-0.9,3.1l-0.7-0.2l0.3-1.1l-8.2-2.4l0.2-0.8l8.3-3.1l1.1-0.3l0,0l-1-0.2l-6-1.7l-0.3,1.1
			l-0.7-0.2l0.9-3.1l0.7,0.2l-0.3,1.1l7.3,2.1l0.3-1.1l0.7,0.2l-0.7,2.5l-7.1,2.7l-1.3,0.3l0,0.1l1.1,0.2l5.2,1.5l0.3-1.1
			L200.6,132.6z"/>
		<path class="st4" d="M188.9,138.4l1.3-2.9l0.7,0.3l-0.4,0.9l6.3,6.4l-0.6,1.3l-8.9-0.5l-0.4,0.9l-0.7-0.3l1.5-3.4l0.7,0.3
			l-0.5,1.1l2.4,0.1l1.4-3.2l-1.7-1.7l-0.4,1L188.9,138.4z M192.3,140l-1.2,2.7l3.2,0.2l1.4,0.3l0,0l-1.1-0.9L192.3,140z"/>
		<path class="st4" d="M192.3,150.9l0.6,0.4l-2,3.5l-0.6-0.4l0.7-1.2l-6.6-3.9l-1.7,3l0.1,0.4l1.5,0.9l-0.5,0.8l-2.4-1.4l3.7-6.3
			l0.6,0.4l-0.6,1l6.6,3.9L192.3,150.9z"/>
	</g>
</g>
<g>
	<g>
		<path class="st4" d="M153.2,137.7c-0.6-0.1-1.3-0.2-2-0.2c-3.6,0.2-6.6,1.7-9.5,3.8c-1.5,1.1-3,2.1-4.4,3.1
			c0.4-0.9,0.9-1.9,1.3-2.9c1-2.3,2.1-4.6,2.6-7.1c0.6-2.9,0.3-5.7,0.3-8.6c-0.1-2.1-0.2-4.1-0.7-6.2c-0.4-1.5-1.5-1.8-2.8-1
			c-0.5,0.3-0.9,0.8-1.1,1.3c-0.5,1-1.1,2-1.5,3.1c-1,2.3-0.9,4.9-1.2,7.4c-0.2,1.6-0.4,3.2-1.2,4.9c-0.6-4.5-1.2-8.8-2.3-13.1
			c-0.2-0.7-0.4-1.5-0.8-2.1c-0.7-1.1-1.7-1.2-2.6-0.3c-1.2,1.2-2.2,2.5-2.5,4.3c-0.2,1.3-0.2,2.7-0.2,4c0.1,2.3,0.2,4.6,0.3,6.9
			c0.1,2.1-0.2,2.3-2.1,2.2c-0.4,0-0.6-0.1-0.6-0.6c-0.1-0.5-0.3-1-0.4-1.6c-0.6-2.1-1.2-4.2-1.2-6.4c0-0.9,0-1.8-0.1-2.7
			c-0.2-1.4-1.4-1.9-2.6-1.2c-0.7,0.4-1.3,1.1-1.7,1.9c-0.6,1.2-0.9,2.4-1,3.7c-0.2,1.9,0,3.8,0.1,5.8c0,0.4,0.1,0.7-0.5,0.7
			c-2.3,0-4.6,0.1-6.9,0c-3.4-0.2-6.3-1.7-9.1-3.4c-2.6-1.6-5-3.5-7.7-4.9c-3.6-1.9-7.4-2.8-11.5-2.1c-2.2,0.4-4.3,1-6.4,1.7
			c-3.8,1.2-7.7,2-11.8,1.1c-1.8-0.4-3.6-1-5.5-1.5c-0.8-0.2-1.5-0.1-1.9,0.5c-1.5,2.2-2.9,4.4-3.4,7c-0.7,3.8-0.9,7.7-0.6,11.6
			c0.2,2.7,0.7,5.3,2.1,7.6c0.8,1.3,1.8,1.5,3.3,1.2c6.6-1.4,13.3-3.2,20.2-2.5c2.3,0.2,4.6,0.3,6.8,1c5.1,1.5,9.9,3.7,14.8,5.8
			c3.2,1.4,6.4,2.9,10,3c3.6,0.1,7.2-0.3,10.8-0.3c3.3,0,6.5-0.6,9.8-0.6c2,0,4-0.1,5.7-1.3c1.8-1.2,3.6-2.5,5.2-3.8
			c5.3-4.3,10.2-9,14.9-13.9c0.5-0.5,0.9-1,1.2-1.6C155.6,139.5,155,138.1,153.2,137.7z M135.8,127c0.2-2.3,1-4.4,2.1-6.3
			c0.3-0.6,0.7-1.3,1.4-1.2c0.7,0.1,0.5,1,0.6,1.6c0.5,3.6,0.6,7.2,0.5,10.9c0,2.2-0.8,4.3-1.7,6.3c-1.1,2.7-2.3,5.3-3.6,7.8
			c-0.4,0.7-1.1,1.1-1.7,1.6c-2.6,2.2-5.7,3.2-9,3.6c1.4-1.4,2.6-3,3.6-4.6c0.2-0.3,0.4-0.2,0.6-0.3c0.7-0.1,1.3-0.2,2-0.2
			c2.5-0.2,4.3-1.7,5.5-3.7c0.8-1.4,0.5-2.5-1-3.3c-0.7-0.4-1.6-0.6-2.4-0.9C135.3,134.8,135.5,130.9,135.8,127z M121.2,147.3
			c0.5-0.8,1.1-0.9,2-0.8c1.2,0.1,2.4,0,3.8,0c-1.2,1.8-2.5,3.3-4,4.5c-0.5,0.4-1,0.2-1.5,0.2c-1.3,0-2.7,0-4.1-0.4
			C118.8,149.7,120.2,148.7,121.2,147.3z M115.9,150.3c-0.1,0.1-0.3,0-0.4,0c-1.9-0.6-3.7-1.4-5.1-3c3.3-0.4,6.5-0.7,9.9-0.8
			C119.1,148.1,117.5,149.3,115.9,150.3z M126.2,124c0.3-1.4,1.2-2.4,2.2-3.4c0.4-0.4,0.6-0.1,0.8,0.2c0.2,0.6,0.5,1.2,0.6,1.9
			c1,4.2,1.7,8.5,2.2,12.8c0.1,0.7-0.2,1.4,0,2.1c0.1,0.3-0.1,0.5-0.5,0.4c-0.5-0.2-1.1-0.2-1.6-0.2c0,0,0,0,0-0.1
			c-1.1-0.1-2.2-0.2-3.3-0.3c-0.2,0-0.6,0.1-0.5-0.4c0.6-2.4,0-4.7,0-7.1C126,127.9,125.8,125.9,126.2,124z M117.8,126.5
			c0.1-0.2,0.2-0.4,0.4-0.5c0.3-0.2,0.6-0.6,1-0.4c0.4,0.2,0.3,0.6,0.3,1c0,2.5,0.1,4.9,0.9,7.3c0.3,1,0.6,2,0.9,3
			c-1.4-0.1-2.8-0.1-4.1-0.2c-0.2,0-0.6,0.1-0.6-0.4c0-2.2-0.4-4.5,0-6.7C116.8,128.5,117.1,127.4,117.8,126.5z M152.8,141.9
			c-3,2.9-5.7,6.1-8.9,8.8c-3.3,2.9-6.6,5.8-10.2,8.3c-1.6,1.1-3.4,1.5-5.3,1.5c-3.2,0-6.4,0.5-9.6,0.5c-4.1,0.1-8.1,0.6-12.2,0.3
			c-3.2-0.2-6-1.6-8.9-2.8c-4.8-2.1-9.6-4.1-14.5-5.7c-2.5-0.8-5.1-0.9-7.6-1.2c-4.5-0.5-8.8,0.3-13.2,1.1c-2.4,0.4-4.7,0.8-7,1.5
			c-1.3,0.4-1.7,0.2-2.3-1c-1.3-2.3-1.7-4.8-1.8-7.4c-0.2-2.9-0.1-5.8,0.4-9.3c0.2-2.5,1.5-5.1,3.2-7.6c0.3-0.4,0.5-0.5,1.1-0.4
			c3.8,1,7.5,2.3,11.5,1.7c3-0.4,5.9-1.3,8.9-2.2c2.9-0.8,5.8-1.4,8.8-0.9c2.7,0.5,5.2,1.7,7.6,3.2c2.9,1.7,5.5,3.8,8.5,5.4
			c2.6,1.4,5.3,2.1,8.2,2c6.6-0.2,13.1,0.2,19.7,0.9c1.8,0.2,3.5,0.5,5.2,1.2c1.5,0.6,1.6,1.2,0.6,2.6c-1.5,2-3.5,2.6-5.8,2.7
			c-3.5,0.2-7-0.1-10.4,0.1c-3.9,0.3-7.9,0.5-11.8,1.3c-1.6,0.4-3,1.1-4.5,1.7c-1.5,0.6-3,1.3-4.5,1.9c-0.4,0.2-0.9,0.3-0.7,0.9
			c0.2,0.5,0.7,0.4,1.1,0.2c2.1-0.7,4.1-1.8,6.2-2.6c0.5-0.2,0.9-0.4,1.4-0.6c1.7-0.7,3.1-0.7,4.7,0.8c2.6,2.4,6,3.3,9.6,3.4
			c2,0.1,4,0.2,6-0.2c3.3-0.7,6.1-2,8.8-4.1c3.5-2.8,6.8-5.7,10.8-7.8c1.8-1,3.7-1.5,5.8-1.6c0.9,0,2-0.1,2.4,0.8
			C154.3,140.5,153.5,141.3,152.8,141.9z"/>
	</g>
</g>
<g>
	<polygon class="st4" points="62.2,185.7 62.2,192.5 54.9,192.5 54.9,185.7 51.3,185.7 51.3,203.5 54.9,203.5 54.9,196 62.2,196 
		62.2,203.5 65.8,203.5 65.8,185.7 	"/>
	<rect x="72.4" y="185.7" class="st4" width="3.6" height="17.8"/>
	<g>
		<path class="st4" d="M92.9,203.5l-3.2-6.4h-3.6v6.4h-3.6v-17.8h8.3c3.4,0,6.1,1.9,6.1,5.7c0,2.7-1.1,4.4-3.4,5.3l3.4,6.9H92.9z
			 M90.8,189.1h-4.7v4.6h4.7c1.7,0,2.5-0.8,2.5-2.3C93.4,189.8,92.4,189.1,90.8,189.1"/>
		<path class="st4" d="M108.4,203.8c-3,0-5.6-1.2-6.9-3.2l2.6-2.3c1.2,1.5,2.9,2,4.6,2c2.1,0,3.1-0.6,3.1-1.9c0-1.1-0.6-1.7-4-2.4
			c-3.3-0.8-5.6-1.8-5.6-5.3c0-3.2,2.9-5.2,6.4-5.2c2.8,0,4.8,1,6.5,2.8l-2.6,2.5c-1.1-1.2-2.4-1.8-4.1-1.8c-1.9,0-2.5,0.8-2.5,1.6
			c0,1.1,0.8,1.5,3.6,2.1c2.8,0.7,6,1.6,6,5.5C115.4,201.5,113.3,203.8,108.4,203.8"/>
		<path class="st4" d="M130.9,190.9c-0.6-1.2-1.7-1.9-3.3-1.9c-2.7,0-4.2,2.3-4.2,5.7c0,3.2,1.6,5.7,4.2,5.7c1.6,0,2.5-0.7,3.5-2.3
			l3,1.8c-1.2,2.5-3.4,4-6.6,4c-4.7,0-7.8-3.6-7.8-9.2c0-5.4,3.3-9.2,7.9-9.2c3.4,0,5.4,1.6,6.5,4L130.9,190.9z"/>
		<polygon class="st4" points="150.3,203.5 150.3,196 142.9,196 142.9,203.5 139.4,203.5 139.4,185.7 142.9,185.7 142.9,192.5 
			150.3,192.5 150.3,185.7 153.8,185.7 153.8,203.5 		"/>
	</g>
</g>
<g>
	<g>
		<path class="st4" d="M77.2,221.7c0,0.8-0.3,1.4-0.9,1.9c-0.6,0.5-1.4,0.7-2.4,0.7c-1,0-1.8-0.2-2.5-0.5V222
			c0.6,0.3,1.1,0.5,1.5,0.6c0.4,0.1,0.8,0.2,1.1,0.2c0.4,0,0.7-0.1,1-0.2c0.2-0.2,0.3-0.4,0.3-0.7c0-0.2,0-0.3-0.1-0.5
			c-0.1-0.1-0.2-0.3-0.4-0.4c-0.2-0.1-0.6-0.3-1.2-0.6c-0.5-0.3-1-0.5-1.2-0.7c-0.3-0.2-0.5-0.5-0.7-0.8c-0.2-0.3-0.2-0.7-0.2-1.1
			c0-0.8,0.3-1.4,0.8-1.9c0.5-0.5,1.3-0.7,2.2-0.7c0.5,0,0.9,0.1,1.3,0.2c0.4,0.1,0.9,0.3,1.3,0.5l-0.6,1.5
			c-0.5-0.2-0.9-0.3-1.2-0.4c-0.3-0.1-0.6-0.1-0.9-0.1c-0.4,0-0.6,0.1-0.8,0.3c-0.2,0.2-0.3,0.4-0.3,0.7c0,0.2,0,0.3,0.1,0.4
			c0.1,0.1,0.2,0.2,0.4,0.4c0.2,0.1,0.6,0.3,1.2,0.6c0.8,0.4,1.4,0.8,1.7,1.2C77,220.6,77.2,221.1,77.2,221.7z"/>
		<path class="st4" d="M90.6,219.7c0,1.5-0.4,2.6-1.1,3.4c-0.7,0.8-1.8,1.2-3.2,1.2s-2.4-0.4-3.2-1.2c-0.7-0.8-1.1-1.9-1.1-3.4
			c0-1.5,0.4-2.6,1.1-3.4c0.7-0.8,1.8-1.2,3.2-1.2c1.4,0,2.4,0.4,3.2,1.2S90.6,218.2,90.6,219.7z M84.1,219.7c0,1,0.2,1.8,0.6,2.3
			s0.9,0.8,1.7,0.8c1.5,0,2.3-1,2.3-3c0-2-0.8-3-2.3-3c-0.8,0-1.3,0.3-1.7,0.8C84.3,217.9,84.1,218.7,84.1,219.7z"/>
		<path class="st4" d="M100,216.7c-0.7,0-1.3,0.3-1.7,0.8c-0.4,0.5-0.6,1.3-0.6,2.2c0,2,0.7,3,2.2,3c0.6,0,1.4-0.2,2.3-0.5v1.6
			c-0.7,0.3-1.6,0.5-2.5,0.5c-1.3,0-2.3-0.4-3-1.2c-0.7-0.8-1-1.9-1-3.4c0-0.9,0.2-1.7,0.5-2.4c0.3-0.7,0.8-1.2,1.5-1.6
			c0.6-0.4,1.4-0.6,2.2-0.6c0.9,0,1.7,0.2,2.6,0.6l-0.6,1.5c-0.3-0.2-0.7-0.3-1-0.4C100.7,216.7,100.4,216.7,100,216.7z"/>
		<path class="st4" d="M108,224.2v-8.9h1.9v8.9H108z"/>
		<path class="st4" d="M121.4,224.2l-0.6-2.1h-3.3l-0.6,2.1h-2l3.2-9h2.3l3.2,9H121.4z M120.3,220.4c-0.6-1.9-0.9-3-1-3.3
			c-0.1-0.3-0.1-0.5-0.2-0.6c-0.1,0.5-0.5,1.8-1.2,3.9H120.3z"/>
		<path class="st4" d="M128.3,224.2v-8.9h1.9v7.4h3.6v1.6H128.3z"/>
	</g>
</g>
</svg>
