<svg id="Group_578" data-name="Group 578" xmlns="http://www.w3.org/2000/svg" width="47.779" height="55.171" viewBox="0 0 47.779 55.171">
  <path id="Path_5056" data-name="Path 5056" d="M14.333,27.585V22.068L9.555,24.827V19.31L4.777,22.068v16.55L9.555,35.86,14.333,33.1l4.778-2.759V24.827Z" fill="#e00f00"/>
  <path id="Path_5057" data-name="Path 5057" d="M38.223,19.31v5.517l-4.778-2.759v5.517l-4.778-2.758v5.516L33.445,33.1l4.778,2.76L43,38.62V22.068Z" fill="#e2542b"/>
  <path id="Path_5058" data-name="Path 5058" d="M19.111,8.276l-4.778,2.758L9.556,13.793v5.516l4.778-2.758v5.517l4.778-2.759v5.517l4.778-2.758V5.518Z" fill="#e00f00"/>
  <path id="Path_5059" data-name="Path 5059" d="M33.444,11.035,28.667,8.277,23.889,5.518v16.55l4.778,2.759V19.31l4.778,2.758V16.552l4.778,2.758V13.793Z" fill="#e2542b"/>
  <path id="Path_5060" data-name="Path 5060" d="M19.111,35.861,23.889,33.1l-4.778-2.759L14.333,33.1,9.556,35.861,4.778,38.619l4.777,2.759,4.778,2.758,4.778,2.758,4.778-2.758-4.778-2.758,4.778-2.759Z" fill="#f08463"/>
  <path id="Path_5061" data-name="Path 5061" d="M38.223,35.861,33.445,33.1l-4.778-2.759L23.89,33.1l4.777,2.758L23.89,38.619l4.777,2.759L23.89,44.136l4.777,2.758,4.778-2.758,4.778-2.758L43,38.619Z" fill="#f08463"/>
  <path id="Path_5062" data-name="Path 5062" d="M14.333,44.136,9.556,41.377,4.778,38.619V22.069l4.778,2.758,4.777,2.759,4.778,2.758V46.893ZM0,19.311V41.377l4.778,2.759,4.778,2.757,4.777,2.761,4.778,2.756,4.779,2.761V27.586l-4.779-2.759-4.778-2.758L9.556,19.311,4.778,16.553,0,13.792Z" fill="#e2542b"/>
  <path id="Path_5063" data-name="Path 5063" d="M28.667,41.377V30.344l4.778-2.759,4.777-2.758L43,22.068V38.619l-4.778,2.758-4.777,2.758L28.667,46.9ZM43,16.552,38.222,19.31l-4.777,2.758-4.778,2.759-4.778,2.758V55.17l4.778-2.757,4.778-2.759L38.222,46.9,43,44.135l4.778-2.758V13.794Z" fill="#e00f00"/>
  <path id="Path_5064" data-name="Path 5064" d="M19.111,19.31l-4.777-2.758L9.556,13.793l4.778-2.758,4.777-2.76,4.778-2.756,4.778,2.756,4.778,2.76,4.777,2.758-4.777,2.759L28.667,19.31l-4.778,2.758ZM23.889,0,19.111,2.758,14.334,5.519,9.556,8.275l-4.778,2.76L0,13.793l4.778,2.759L9.556,19.31l4.778,2.758,4.777,2.759,4.778,2.758,4.778-2.758,4.778-2.759,4.777-2.758L43,16.552l4.779-2.759L43,11.035l-4.778-2.76L33.445,5.519,28.667,2.758Z" fill="#f08463"/>
</svg>
