<?xml version="1.0" encoding="utf-8"?>
<!-- Generator: Adobe Illustrator 24.0.1, SVG Export Plug-In . SVG Version: 6.00 Build 0)  -->
<svg version="1.1" id="Layer_1" xmlns="http://www.w3.org/2000/svg" xmlns:xlink="http://www.w3.org/1999/xlink" x="0px" y="0px"
	 viewBox="0 0 35.9 41.5" style="enable-background:new 0 0 35.9 41.5;" xml:space="preserve">
<style type="text/css">
	.st0{fill:#FAB900;}
	.st1{fill:#F4C200;}
	.st2{fill:#EB5D0B;}
	.st3{fill:#EE8900;}
	.st4{fill:#F06400;}
	.st5{fill:#F77D11;}
</style>
<path id="Path_2337" class="st0" d="M14.4,27l3.6-2.1l-6.1-3.4l-3.6,2.1l-3.6,2.1l-3.6,2.1l6.1,3.4l3.6,2.1l3.6,2.1l3.6-2.1
	l-3.6-2.1L18,29L14.4,27z"/>
<path id="Path_2338" class="st1" d="M14.4,35.3v4.1l3.6-2.1v-4.1L14.4,35.3z"/>
<path id="Path_2339" class="st1" d="M18,37.3l3.6,2.1v-4.1L18,33.2V37.3z"/>
<path id="Path_2340" class="st0" d="M28.7,27l-3.6-2.1l-3.6-2.1L18,24.9l3.6,2.1L18,29l3.6,2.1L18,33.2l3.6,2.1l3.6-2.1l3.6-2.1
	l3.6-2.1L28.7,27z"/>
<path id="Path_2341" class="st2" d="M0,14.5l3.6,2.1l3.6-2.1l-3.6-2.1L0,14.5z"/>
<path id="Path_2344" class="st3" d="M28.7,14.5l3.6,2.1l3.6-2.1l-3.6-2.1L28.7,14.5z"/>
<path id="Path_2345" class="st2" d="M3.6,12.4l3.6,2.1v-4.1L3.6,8.3V12.4z"/>
<path class="st4" d="M10.8,20.7l3.6-2.1v4.1l-3.6,2.1L7.2,27L3.6,29V16.6l3.6-2.1v4.1l3.6-2.1V20.7z M14.4,4.6l-3.6,2.1L7.2,8.8v5.8
	l3.6-2.1v4.1l3.6-2.1v4.1l3.6-2.1V2.5L14.4,4.6z"/>
<path class="st5" d="M32.3,16.6V29L28.7,27l-3.6-2.1l-3.6-2.1v-4.1l3.6,2.1v-4.1l3.6,2.1v-4.1L32.3,16.6z M25.2,12.4l3.6,2.1v-4.1
	l-3.6-2.1l-3.6-2.1L18,4.1v12.4l3.6,2.1v-4.1l3.6,2.1V12.4z"/>
<path id="Path_2348" class="st5" d="M14.4,18.7l-3.6-2.1l-3.6-2.1l-3.6-2.1L0,10.4v20.7l3.6,2.1l3.6,2.1l3.6,2.1l3.6,2.1l3.6,2.1
	V20.7L14.4,18.7z M14.4,27v8.3l-3.6-2.1l-3.6-2.1L3.6,29V16.6l3.6,2.1l3.6,2.1l3.6,2.1L14.4,27z"/>
<path id="Path_2349" class="st0" d="M32.3,8.3l-3.6-2.1l-3.6-2.1l-3.6-2.1L18,0l-3.6,2.1l-3.6,2.1L7.2,6.2L3.6,8.3L0,10.4l3.6,2.1
	l3.6,2.1l3.6,2.1l3.6,2.1l3.6,2.1l3.6-2.1l3.6-2.1l3.6-2.1l3.6-2.1l3.6-2.1L32.3,8.3z M25.2,12.4l-3.6,2.1L18,16.6l-3.6-2.1
	l-3.6-2.1l-3.6-2.1l3.6-2.1l3.6-2.1L18,4.1l3.6,2.1l3.6,2.1l3.6,2.1L25.2,12.4z"/>
<path id="Path_2350" class="st4" d="M32.3,12.4l-3.6,2.1l-3.6,2.1l-3.6,2.1L18,20.7v20.7l3.6-2.1l3.6-2.1l3.6-2.1l3.6-2.1l3.6-2.1
	V10.4L32.3,12.4z M32.3,20.7V29l-3.6,2.1l-3.6,2.1l-3.6,2.1V22.8l3.6-2.1l3.6-2.1l3.6-2.1V20.7z"/>
</svg>
