<svg id="Group_218" data-name="Group 218" xmlns="http://www.w3.org/2000/svg" xmlns:xlink="http://www.w3.org/1999/xlink" width="293.579" height="317.834" viewBox="0 0 293.579 317.834">
  <defs>
    <clipPath id="clip-path">
      <rect id="Rectangle_660" data-name="Rectangle 660" width="293.579" height="317.834" fill="none"/>
    </clipPath>
  </defs>
  <path id="Path_2374" data-name="Path 2374" d="M107.807,36.86l-8.774,5.1-8.83-5.1,8.774-5.1Z" transform="translate(65.187 22.952)" fill="#ffb010"/>
  <path id="Path_2375" data-name="Path 2375" d="M104.147,34.721l-.107,37.961-8.774,5.1.107-37.961Z" transform="translate(68.846 25.092)" fill="#ff4f00"/>
  <path id="Path_2376" data-name="Path 2376" d="M99.079,39.819,98.972,77.78l-8.832-5.1.109-37.961Z" transform="translate(65.141 25.091)" fill="#ff7d01"/>
  <path id="Path_2377" data-name="Path 2377" d="M96.932,51.146l24.471,13.6-2.038,34.667-14.276,3.4L88.775,84.454Z" transform="translate(64.155 36.962)" fill="#f77d11"/>
  <path id="Path_2378" data-name="Path 2378" d="M61.942,97.589l4.079-44.863,33.308.68L101.5,88.8,64.661,99.628Z" transform="translate(44.764 38.103)" fill="#ff4f00"/>
  <path id="Path_2379" data-name="Path 2379" d="M133.516,84.162,107.9,69.373H90.821L65.205,84.162l-.3,4.455,32.627,17.675L122,96.773l11.556-8.837Z" transform="translate(46.903 50.133)" fill="#ffb010"/>
  <path id="Path_2380" data-name="Path 2380" d="M84.905,77.156,106.24,51.781l21.358.725v49.3l-8.538,4.929-8.539,4.93-8.538,4.93-8.539,4.929-8.539,4.93v-49.3m8.539,14.789v19.719l8.539-4.93,8.538-4.929,8.539-4.93V66.937l-12.017-6.953-13.6,22.1Z" transform="translate(61.358 37.421)" fill="#ff4f00"/>
  <path id="Path_2381" data-name="Path 2381" d="M68.66,57.131l8.539,4.93,8.538,4.93,8.539,4.929,8.538,4.93v49.3l-8.538-4.93-8.539-4.93L77.2,111.361l-8.539-4.932L60.121,101.5V52.2Zm0,19.719V96.57L77.2,101.5l8.538,4.929,8.539,4.932V81.781l-8.539-4.93L77.2,71.92,68.66,66.992Z" transform="translate(43.448 37.724)" fill="#ff7d01"/>
  <path id="Path_2382" data-name="Path 2382" d="M85.114,81.342l3.4,3.4L107.886,56.51l15.974,9.2,3.738-8.718L107.377,45.576,84.905,81.639" transform="translate(61.358 32.937)" fill="#ff4f00"/>
  <path id="Path_2383" data-name="Path 2383" d="M125.294,55.735,82.949,31.521,60.113,67.163,102.821,91.8Z" transform="translate(43.442 22.779)" fill="#ffb010"/>
  <text id="S" transform="matrix(-0.487, -0.873, 0.873, -0.487, 33.869, 215.953)" fill="#fff" font-size="17" font-family="PTSerif-Caption, PT Serif Caption"><tspan x="0" y="0">S</tspan></text>
  <text id="O" transform="matrix(-0.377, -0.926, 0.926, -0.377, 28.049, 203.376)" fill="#fff" font-size="18" font-family="PTSerif-Caption, PT Serif Caption"><tspan x="0" y="0">O</tspan></text>
  <g id="Group_70" data-name="Group 70">
    <g id="Group_69" data-name="Group 69" clip-path="url(#clip-path)">
      <text id="C" transform="translate(19.534 187.034) rotate(-104.753)" fill="#fff" font-size="16" font-family="PTSerif-Caption, PT Serif Caption"><tspan x="0" y="0">C</tspan></text>
      <text id="I" transform="translate(15.758 171.525) rotate(-99.038)" fill="#fff" font-size="16" font-family="PTSerif-Caption, PT Serif Caption"><tspan x="0" y="0">I</tspan></text>
      <text id="A" transform="translate(15.111 161.141) rotate(-93.163)" fill="#fff" font-size="17" font-family="PTSerif-Caption, PT Serif Caption"><tspan x="0" y="0">A</tspan></text>
      <text id="L" transform="translate(13.435 144.26) rotate(-86.554)" fill="#fff" font-size="16" font-family="PTSerif-Caption, PT Serif Caption"><tspan x="0" y="0">L</tspan></text>
      <text id="_" data-name=" " transform="translate(16.541 130.243) rotate(-81.718)" fill="#fff" font-size="18" font-family="PTSerif-Caption, PT Serif Caption"><tspan x="0" y="0"> </tspan></text>
      <text id="P" transform="translate(16.702 122.049) rotate(-76.621)" fill="#fff" font-size="17" font-family="PTSerif-Caption, PT Serif Caption"><tspan x="0" y="0">P</tspan></text>
    </g>
  </g>
  <text id="R" transform="translate(21.326 107.588) rotate(-69.801)" fill="#fff" font-size="18" font-family="PTSerif-Caption, PT Serif Caption"><tspan x="0" y="0">R</tspan></text>
  <text id="O-2" data-name="O" transform="matrix(0.46, -0.888, 0.888, 0.46, 26.651, 93.331)" fill="#fff" font-size="18" font-family="PTSerif-Caption, PT Serif Caption"><tspan x="0" y="0">O</tspan></text>
  <text id="J" transform="translate(34.48 76.862) rotate(-56.517)" fill="#fff" font-size="17" font-family="PTSerif-Caption, PT Serif Caption"><tspan x="0" y="0">J</tspan></text>
  <text id="E" transform="translate(40.058 68.49) rotate(-51.131)" fill="#fff" font-size="17" font-family="PTSerif-Caption, PT Serif Caption"><tspan x="0" y="0">E</tspan></text>
  <text id="C-2" data-name="C" transform="translate(48.791 56.308) rotate(-44.53)" fill="#fff" font-size="16" font-family="PTSerif-Caption, PT Serif Caption"><tspan x="0" y="0">C</tspan></text>
  <text id="T" transform="translate(59.915 45.582) rotate(-37.927)" fill="#fff" font-size="16" font-family="PTSerif-Caption, PT Serif Caption"><tspan x="0" y="0">T</tspan></text>
  <text id="S-2" data-name="S" transform="matrix(0.853, -0.522, 0.522, 0.853, 73.177, 36.804)" fill="#fff" font-size="17" font-family="PTSerif-Caption, PT Serif Caption"><tspan x="0" y="0">S</tspan></text>
  <text id="_2" data-name=" " transform="translate(85.68 30.612) rotate(-26.686)" fill="#fff" font-size="18" font-family="PTSerif-Caption, PT Serif Caption"><tspan x="0" y="0"> </tspan></text>
  <text id="B" transform="matrix(0.931, -0.366, 0.366, 0.931, 92.151, 25.093)" fill="#fff" font-size="16" font-family="PTSerif-Caption, PT Serif Caption"><tspan x="0" y="0">B</tspan></text>
  <g id="Group_72" data-name="Group 72">
    <g id="Group_71" data-name="Group 71" clip-path="url(#clip-path)">
      <text id="Y" transform="matrix(0.968, -0.251, 0.251, 0.968, 107.356, 21.427)" fill="#fff" font-size="18" font-family="PTSerif-Caption, PT Serif Caption"><tspan x="0" y="0">Y</tspan></text>
      <text id="_3" data-name=" " transform="translate(123.208 17.666) rotate(-9.183)" fill="#fff" font-size="18" font-family="PTSerif-Caption, PT Serif Caption"><tspan x="0" y="0"> </tspan></text>
      <text id="H" transform="translate(131.14 16.288) rotate(-3.513)" fill="#fff" font-size="18" font-family="PTSerif-Caption, PT Serif Caption"><tspan x="0" y="0">H</tspan></text>
      <text id="I-2" data-name="I" transform="translate(149.158 13.551) rotate(2.539)" fill="#fff" font-size="16" font-family="PTSerif-Caption, PT Serif Caption"><tspan x="0" y="0">I</tspan></text>
      <text id="R-2" data-name="R" transform="matrix(0.99, 0.143, -0.143, 0.99, 159.355, 16.012)" fill="#fff" font-size="18" font-family="PTSerif-Caption, PT Serif Caption"><tspan x="0" y="0">R</tspan></text>
      <text id="S-3" data-name="S" transform="matrix(0.967, 0.254, -0.254, 0.967, 175.267, 17.538)" fill="#fff" font-size="17" font-family="PTSerif-Caption, PT Serif Caption"><tspan x="0" y="0">S</tspan></text>
    </g>
  </g>
  <text id="C-3" data-name="C" transform="translate(189.139 20.288) rotate(21.257)" fill="#fff" font-size="16" font-family="PTSerif-Caption, PT Serif Caption"><tspan x="0" y="0">C</tspan></text>
  <text id="H-2" data-name="H" transform="translate(202.95 27.93) rotate(28.599)" fill="#fff" font-size="18" font-family="PTSerif-Caption, PT Serif Caption"><tspan x="0" y="0">H</tspan></text>
  <text id="_4" data-name=" " transform="matrix(0.826, 0.563, -0.563, 0.826, 218.557, 36.891)" fill="#fff" font-size="18" font-family="PTSerif-Caption, PT Serif Caption"><tspan x="0" y="0"> </tspan></text>
  <text id="I-3" data-name="I" transform="matrix(0.785, 0.62, -0.62, 0.785, 226.442, 39.933)" fill="#fff" font-size="16" font-family="PTSerif-Caption, PT Serif Caption"><tspan x="0" y="0">I</tspan></text>
  <text id="N" transform="translate(233.27 47.813) rotate(44.402)" fill="#fff" font-size="18" font-family="PTSerif-Caption, PT Serif Caption"><tspan x="0" y="0">N</tspan></text>
  <text id="T-2" data-name="T" transform="matrix(0.62, 0.785, -0.785, 0.62, 247.454, 59.287)" fill="#fff" font-size="16" font-family="PTSerif-Caption, PT Serif Caption"><tspan x="0" y="0">T</tspan></text>
  <text id="E-2" data-name="E" transform="translate(256.308 72.435) rotate(58.306)" fill="#fff" font-size="17" font-family="PTSerif-Caption, PT Serif Caption"><tspan x="0" y="0">E</tspan></text>
  <text id="R-3" data-name="R" transform="translate(263.097 85.599) rotate(65.015)" fill="#fff" font-size="18" font-family="PTSerif-Caption, PT Serif Caption"><tspan x="0" y="0">R</tspan></text>
  <text id="N-2" data-name="N" transform="translate(269.67 99.991) rotate(72.412)" fill="#fff" font-size="18" font-family="PTSerif-Caption, PT Serif Caption"><tspan x="0" y="0">N</tspan></text>
  <g id="Group_74" data-name="Group 74">
    <g id="Group_73" data-name="Group 73" clip-path="url(#clip-path)">
      <text id="A-2" data-name="A" transform="translate(275.838 116.94) rotate(80.007)" fill="#fff" font-size="17" font-family="PTSerif-Caption, PT Serif Caption"><tspan x="0" y="0">A</tspan></text>
      <text id="T-3" data-name="T" transform="matrix(0.063, 0.998, -0.998, 0.063, 279.373, 131.916)" fill="#fff" font-size="16" font-family="PTSerif-Caption, PT Serif Caption"><tspan x="0" y="0">T</tspan></text>
      <text id="I-4" data-name="I" transform="matrix(-0.034, 0.999, -0.999, -0.034, 280.091, 147.845)" fill="#fff" font-size="16" font-family="PTSerif-Caption, PT Serif Caption"><tspan x="0" y="0">I</tspan></text>
      <text id="O-3" data-name="O" transform="matrix(-0.141, 0.99, -0.99, -0.141, 277.798, 158.014)" fill="#fff" font-size="18" font-family="PTSerif-Caption, PT Serif Caption"><tspan x="0" y="0">O</tspan></text>
    </g>
  </g>
  <text id="N-3" data-name="N" transform="translate(275.054 175.833) rotate(105.975)" fill="#fff" font-size="18" font-family="PTSerif-Caption, PT Serif Caption"><tspan x="0" y="0">N</tspan></text>
  <text id="A-3" data-name="A" transform="matrix(-0.4, 0.916, -0.916, -0.4, 270.814, 193.396)" fill="#fff" font-size="17" font-family="PTSerif-Caption, PT Serif Caption"><tspan x="0" y="0">A</tspan></text>
  <text id="L-2" data-name="L" transform="matrix(-0.505, 0.863, -0.863, -0.505, 264.704, 209.222)" fill="#fff" font-size="16" font-family="PTSerif-Caption, PT Serif Caption"><tspan x="0" y="0">L</tspan></text>
  <g id="Group_76" data-name="Group 76">
    <g id="Group_75" data-name="Group 75" clip-path="url(#clip-path)">
      <path id="Path_2384" data-name="Path 2384" d="M187.17,125.414a9.792,9.792,0,0,0-2.761-.272c-5.041.269-9.323,2.412-13.314,5.323-2.078,1.516-4.212,2.954-6.134,4.3.537-1.2,1.2-2.653,1.84-4.11a49.863,49.863,0,0,0,3.688-9.924c.83-4.014.472-8.079.358-12.121a41.241,41.241,0,0,0-.968-8.646c-.5-2.043-2.1-2.589-3.869-1.438a4.626,4.626,0,0,0-1.585,1.776c-.732,1.419-1.494,2.83-2.134,4.291-1.445,3.29-1.332,6.856-1.654,10.333a20.087,20.087,0,0,1-1.687,6.884c-.891-6.377-1.735-12.422-3.178-18.364a9.223,9.223,0,0,0-1.09-2.953c-.968-1.485-2.36-1.7-3.6-.431-1.661,1.7-3.158,3.506-3.518,6a32.146,32.146,0,0,0-.289,5.678c.107,3.242.307,6.481.413,9.721.1,2.973-.222,3.251-3.018,3.09-.575-.034-.782-.157-.842-.78a11.791,11.791,0,0,0-.584-2.193,34.034,34.034,0,0,1-1.738-9.027c-.034-1.263.031-2.536-.121-3.785-.239-1.985-1.9-2.729-3.623-1.711a6.167,6.167,0,0,0-2.338,2.6,15.013,15.013,0,0,0-1.411,5.213,54.378,54.378,0,0,0,.1,8.086c.017.529.1.991-.7.978-3.246-.048-6.488.181-9.74.033-4.792-.219-8.822-2.343-12.737-4.817-3.63-2.291-7.02-4.942-10.861-6.92-5.094-2.62-10.367-3.983-16.107-3a69.324,69.324,0,0,0-9.042,2.319c-5.4,1.69-10.873,2.815-16.532,1.545-2.589-.581-5.128-1.388-7.692-2.093a2.305,2.305,0,0,0-2.736.749c-2.121,3.046-4.117,6.172-4.832,9.9a59.622,59.622,0,0,0-.872,16.257,24.3,24.3,0,0,0,3.008,10.725c1.1,1.843,2.513,2.157,4.656,1.7,9.342-2,18.629-4.465,28.334-3.561a47.533,47.533,0,0,1,9.516,1.407,193.511,193.511,0,0,1,20.82,8.14c4.527,1.974,9.051,4.019,14.124,4.153s10.1-.424,15.161-.489c4.593-.057,9.149-.8,13.752-.794,2.787,0,5.6-.126,8.031-1.761,2.525-1.7,5-3.468,7.358-5.4a230.62,230.62,0,0,0,20.879-19.568,8.052,8.052,0,0,0,1.649-2.217c1.039-2.346.11-4.248-2.372-4.822m-24.477-15.16a20.98,20.98,0,0,1,3-8.9c.451-.806,1.049-1.886,2.012-1.671.925.205.742,1.452.865,2.288a92.226,92.226,0,0,1,.729,15.259,24.522,24.522,0,0,1-2.329,8.879c-1.549,3.733-3.244,7.4-5.023,11.025a7.586,7.586,0,0,1-2.345,2.238c-3.669,3.065-8.019,4.463-12.682,5.08a42.843,42.843,0,0,0,5.12-6.467c.243-.379.527-.338.848-.374.92-.1,1.838-.227,2.76-.31,3.552-.319,5.976-2.353,7.757-5.239,1.194-1.931.646-3.549-1.342-4.637a25.055,25.055,0,0,0-3.438-1.308c3.337-4.808,3.692-10.346,4.066-15.864M142.138,138.9a2.564,2.564,0,0,1,2.756-1.182c1.666.153,3.357.017,5.283.005a28.542,28.542,0,0,1-5.59,6.384c-.655.551-1.356.331-2.05.336a23.172,23.172,0,0,1-5.786-.539c2.055-1.607,4.028-3.016,5.387-5m-7.407,4.184a.8.8,0,0,1-.6-.007,15.822,15.822,0,0,1-7.144-4.274c4.643-.543,9.184-.965,13.983-1.146a20.728,20.728,0,0,1-6.243,5.426m14.51-37.036c.384-2.019,1.711-3.425,3.051-4.827.5-.529.882-.15,1.065.3a18.022,18.022,0,0,1,.868,2.625,153.1,153.1,0,0,1,3.035,18.007c.114,1.008-.212,2-.009,3.02.1.489-.141.718-.751.537a15.951,15.951,0,0,0-2.248-.351l.01-.095c-1.554-.131-3.109-.248-4.66-.4-.312-.031-.846.112-.677-.568.825-3.306.017-6.619.026-9.929a44.308,44.308,0,0,1,.289-8.317m-11.843,3.6a2.906,2.906,0,0,1,.572-.668c.42-.312.822-.892,1.4-.627.508.233.475.873.469,1.366a33.427,33.427,0,0,0,1.211,10.241c.422,1.4.817,2.811,1.242,4.276-2.012-.078-3.9-.14-5.785-.236-.319-.015-.787.112-.779-.539.038-3.156-.52-6.315.052-9.473a10.341,10.341,0,0,1,1.616-4.339M186.676,131.3c-4.165,4.129-8.072,8.527-12.526,12.362-4.677,4.024-9.256,8.165-14.326,11.718a12.391,12.391,0,0,1-7.4,2.143c-4.52-.017-9,.653-13.5.76-5.728.138-11.447.791-17.182.463-4.482-.257-8.45-2.238-12.476-3.966-6.734-2.891-13.463-5.786-20.445-8.048-3.5-1.134-7.142-1.228-10.736-1.643-6.274-.725-12.433.363-18.567,1.519-3.308.624-6.631,1.161-9.886,2.048-1.811.493-2.332.222-3.235-1.4a23.976,23.976,0,0,1-2.581-10.334,65.355,65.355,0,0,1,.548-13.075c.226-3.488,2.174-7.139,4.553-10.62a1.165,1.165,0,0,1,1.554-.527c5.278,1.456,10.543,3.182,16.138,2.439a85.075,85.075,0,0,0,12.482-3.092c4.026-1.173,8.131-2.014,12.336-1.22a32.458,32.458,0,0,1,10.684,4.444c4.033,2.431,7.733,5.368,11.912,7.594a22.851,22.851,0,0,0,11.55,2.775,201.546,201.546,0,0,1,27.678,1.264,26.488,26.488,0,0,1,7.277,1.618c2.133.882,2.272,1.73.868,3.612-2.057,2.761-4.9,3.611-8.162,3.8-4.892.291-9.788-.133-14.672.181a108.735,108.735,0,0,0-16.555,1.883,36.446,36.446,0,0,0-6.369,2.412c-2.093.892-4.188,1.783-6.289,2.655-.572.236-1.232.474-.935,1.22.277.7.947.532,1.535.326,2.992-1.047,5.819-2.479,8.727-3.719.66-.281,1.33-.536,1.995-.8,2.434-.965,4.364-.941,6.622,1.125,3.673,3.357,8.476,4.593,13.426,4.836a34.274,34.274,0,0,0,8.453-.222A28.176,28.176,0,0,0,161.5,140.03c4.861-3.907,9.569-8.074,15.139-11.025a18.4,18.4,0,0,1,8.086-2.233c1.252-.041,2.768-.143,3.378,1.173.649,1.406-.494,2.431-1.428,3.356" transform="translate(30.386 70.769)" fill="#fff"/>
      <path id="Path_2385" data-name="Path 2385" d="M58.458,152.983v9.6H48.174v-9.6H43.158v25.084h5.016V167.531H58.458v10.536h5.016V152.983Z" transform="translate(31.189 110.556)" fill="#fff"/>
      <rect id="Rectangle_663" data-name="Rectangle 663" width="5.016" height="25.084" transform="translate(103.992 263.539)" fill="#fff"/>
      <path id="Path_2386" data-name="Path 2386" d="M83.228,178.067l-4.479-9.03H73.7v9.03H68.68V152.983H80.361c4.73,0,8.636,2.615,8.636,7.955,0,3.762-1.612,6.128-4.8,7.382l4.8,9.747Zm-2.973-20.21H73.7v6.45h6.558c2.329,0,3.583-1.075,3.583-3.259,0-2.258-1.361-3.19-3.583-3.19" transform="translate(49.633 110.556)" fill="#fff"/>
      <path id="Path_2387" data-name="Path 2387" d="M93.822,178.627c-4.193,0-7.847-1.757-9.747-4.551l3.619-3.225a8.125,8.125,0,0,0,6.415,2.867c2.973,0,4.37-.823,4.37-2.724,0-1.612-.86-2.329-5.59-3.4-4.622-1.075-7.847-2.544-7.847-7.488,0-4.551,4.012-7.347,8.958-7.347a11.983,11.983,0,0,1,9.137,3.943l-3.619,3.511a7.647,7.647,0,0,0-5.7-2.579c-2.687,0-3.583,1.146-3.583,2.257,0,1.576,1.075,2.079,5.053,3.01s8.384,2.295,8.384,7.74c0,4.767-3.01,7.991-9.854,7.991" transform="translate(60.758 110.391)" fill="#fff"/>
      <path id="Path_2388" data-name="Path 2388" d="M114.691,160.459a4.763,4.763,0,0,0-4.587-2.724c-3.762,0-5.91,3.3-5.91,7.955,0,4.515,2.184,7.955,5.947,7.955,2.258,0,3.583-.966,4.91-3.189l4.229,2.508A9.584,9.584,0,0,1,110,178.626c-6.556,0-10.965-5.016-10.965-12.936,0-7.633,4.586-12.936,11.144-12.936,4.73,0,7.6,2.293,9.173,5.554Z" transform="translate(71.567 110.391)" fill="#fff"/>
      <path id="Path_2389" data-name="Path 2389" d="M130.307,178.067V167.531H120.023v10.536H115V152.984h5.018v9.6h10.284v-9.6h5.016v25.084Z" transform="translate(83.11 110.556)" fill="#fff"/>
      <path id="Path_2390" data-name="Path 2390" d="M66.493,186.259a3.247,3.247,0,0,1-1.225,2.68,5.31,5.31,0,0,1-3.407.98,8,8,0,0,1-3.557-.756V186.69a14.551,14.551,0,0,0,2.153.8,6.34,6.34,0,0,0,1.611.233,2.293,2.293,0,0,0,1.345-.336,1.146,1.146,0,0,0,.469-1,1.1,1.1,0,0,0-.207-.658,2.347,2.347,0,0,0-.606-.555,15.692,15.692,0,0,0-1.628-.851,7.679,7.679,0,0,1-1.728-1.039,3.923,3.923,0,0,1-.92-1.159,3.314,3.314,0,0,1-.343-1.547,3.245,3.245,0,0,1,1.13-2.622A4.7,4.7,0,0,1,62.7,177a7.359,7.359,0,0,1,1.869.233,12.908,12.908,0,0,1,1.86.653l-.86,2.071a12.971,12.971,0,0,0-1.662-.575,5.285,5.285,0,0,0-1.294-.164,1.715,1.715,0,0,0-1.159.353,1.157,1.157,0,0,0-.4.918,1.138,1.138,0,0,0,.164.615,1.81,1.81,0,0,0,.52.508,16.421,16.421,0,0,0,1.688.88,6.714,6.714,0,0,1,2.415,1.688,3.3,3.3,0,0,1,.653,2.076" transform="translate(42.134 127.915)" fill="#fff"/>
      <path id="Path_2391" data-name="Path 2391" d="M79.082,183.456a6.818,6.818,0,0,1-1.547,4.8,5.739,5.739,0,0,1-4.434,1.674,5.734,5.734,0,0,1-4.434-1.674,6.844,6.844,0,0,1-1.547-4.813,6.752,6.752,0,0,1,1.55-4.791,5.8,5.8,0,0,1,4.448-1.654,5.724,5.724,0,0,1,4.429,1.666,6.832,6.832,0,0,1,1.535,4.8m-9.17,0a5.258,5.258,0,0,0,.8,3.171,2.8,2.8,0,0,0,2.389,1.065q3.186,0,3.189-4.236t-3.171-4.245a2.813,2.813,0,0,0-2.4,1.07,5.223,5.223,0,0,0-.808,3.175" transform="translate(48.506 127.908)" fill="#fff"/>
      <path id="Path_2392" data-name="Path 2392" d="M84.213,179.22a2.714,2.714,0,0,0-2.331,1.13,5.263,5.263,0,0,0-.823,3.149q0,4.2,3.154,4.2a10.029,10.029,0,0,0,3.2-.661v2.234a8.918,8.918,0,0,1-3.456.644,5.266,5.266,0,0,1-4.191-1.662,7.036,7.036,0,0,1-1.454-4.773,7.8,7.8,0,0,1,.713-3.435,5.17,5.17,0,0,1,2.052-2.26A6.057,6.057,0,0,1,84.213,177a8.438,8.438,0,0,1,3.676.885l-.86,2.165a13.814,13.814,0,0,0-1.418-.584,4.24,4.24,0,0,0-1.4-.25" transform="translate(56.597 127.915)" fill="#fff"/>
      <rect id="Rectangle_664" data-name="Rectangle 664" width="2.665" height="12.563" transform="translate(151.965 305.098)" fill="#fff"/>
      <path id="Path_2393" data-name="Path 2393" d="M103.018,189.693l-.911-2.991H97.526l-.911,2.991h-2.87l4.434-12.615h3.258l4.451,12.615Zm-1.547-5.225q-1.264-4.065-1.423-4.6t-.227-.842q-.284,1.1-1.624,5.44Z" transform="translate(67.747 127.969)" fill="#fff"/>
      <path id="Path_2394" data-name="Path 2394" d="M104.776,189.672V177.108h2.665v10.364h5.1v2.2Z" transform="translate(75.719 127.991)" fill="#fff"/>
    </g>
  </g>
</svg>
