<svg id="Group_235" data-name="Group 235" xmlns="http://www.w3.org/2000/svg" xmlns:xlink="http://www.w3.org/1999/xlink" width="35.5" height="33.5" viewBox="0 0 35.5 33.5">
  <defs>
    <clipPath id="clip-path">
      <rect id="Rectangle_778" data-name="Rectangle 778" width="35.5" height="33.5" fill="none"/>
    </clipPath>
  </defs>
  <g id="Group_234" data-name="Group 234" clip-path="url(#clip-path)">
    <path id="Path_4616" data-name="Path 4616" d="M10.75,9.75h-8a2,2,0,0,0-2,2v19a2,2,0,0,0,2,2h30a2,2,0,0,0,2-2v-19a2,2,0,0,0-2-2h0" fill="none" stroke="#000" stroke-linecap="round" stroke-linejoin="round" stroke-width="1.5"/>
    <line id="Line_30" data-name="Line 30" y1="23" transform="translate(8.75 9.75)" fill="none" stroke="#000" stroke-linecap="round" stroke-linejoin="round" stroke-width="1.5"/>
    <line id="Line_31" data-name="Line 31" x1="3" transform="translate(13.75 22.75)" fill="none" stroke="#000" stroke-linecap="round" stroke-linejoin="round" stroke-width="1.5"/>
    <line id="Line_32" data-name="Line 32" x1="2" transform="translate(20.75 22.75)" fill="none" stroke="#000" stroke-linecap="round" stroke-linejoin="round" stroke-width="1.5"/>
    <line id="Line_33" data-name="Line 33" x1="3" transform="translate(26.75 22.75)" fill="none" stroke="#000" stroke-linecap="round" stroke-linejoin="round" stroke-width="1.5"/>
    <line id="Line_34" data-name="Line 34" x1="3" transform="translate(13.75 27.75)" fill="none" stroke="#000" stroke-linecap="round" stroke-linejoin="round" stroke-width="1.5"/>
    <line id="Line_35" data-name="Line 35" x1="2" transform="translate(20.75 27.75)" fill="none" stroke="#000" stroke-linecap="round" stroke-linejoin="round" stroke-width="1.5"/>
    <line id="Line_36" data-name="Line 36" x1="3" transform="translate(26.75 27.75)" fill="none" stroke="#000" stroke-linecap="round" stroke-linejoin="round" stroke-width="1.5"/>
    <rect id="Rectangle_777" data-name="Rectangle 777" width="16" height="16" transform="translate(13.75 0.75)" stroke-width="1.5" stroke="#000" stroke-linecap="round" stroke-linejoin="round" fill="none"/>
    <line id="Line_37" data-name="Line 37" x2="9" transform="translate(16.75 4.75)" fill="none" stroke="#000" stroke-linecap="round" stroke-linejoin="round" stroke-width="1.5"/>
    <line id="Line_38" data-name="Line 38" x2="9" transform="translate(16.75 12.75)" fill="none" stroke="#000" stroke-linecap="round" stroke-linejoin="round" stroke-width="1.5"/>
    <line id="Line_39" data-name="Line 39" x2="6" transform="translate(16.75 8.75)" fill="none" stroke="#000" stroke-linecap="round" stroke-linejoin="round" stroke-width="1.5"/>
  </g>
</svg>
